<?xml version="1.0" standalone="no"?>
<!DOCTYPE svg PUBLIC "-//W3C//DTD SVG 1.1//EN" "http://www.w3.org/Graphics/SVG/1.1/DTD/svg11.dtd" >
<svg xmlns="http://www.w3.org/2000/svg" xmlns:xlink="http://www.w3.org/1999/xlink" version="1.1">
<metadata></metadata>
<defs>
<font id="lemonmilkregular" horiz-adv-x="1708" >
<font-face units-per-em="2048" ascent="1638" descent="-410" />
<missing-glyph horiz-adv-x="600" />
<glyph horiz-adv-x="0" />
<glyph horiz-adv-x="682" />
<glyph unicode=" "  horiz-adv-x="600" />
<glyph unicode="&#x09;" horiz-adv-x="600" />
<glyph unicode="&#xa0;" horiz-adv-x="600" />
<glyph unicode="!" horiz-adv-x="582" d="M80 169q0 85 60 143.5t146 58.5t146 -60.5t60 -145.5t-60 -143.5t-146 -58.5t-146 60.5t-60 145.5zM98 1620h372l-51 -1140h-269q-7 233 -27.5 645t-24.5 495z" />
<glyph unicode="&#x22;" horiz-adv-x="765" d="M60 1290v322h282v-322l-98 -232h-141l50 232h-93zM423 1290v322h282v-322l-98 -232h-141l50 232h-93z" />
<glyph unicode="#" horiz-adv-x="1377" d="M-5 307l29 229h230l40 307h-230l30 230h230l61 459h230l-61 -459h230l61 459h230l-61 -459h229l-29 -230h-230l-41 -307h230l-30 -229h-229l-41 -307h-230l41 307h-230l-41 -307h-230l41 307h-229zM484 536h229l41 307h-230z" />
<glyph unicode="$" horiz-adv-x="1087" d="M58 1128q0 167 104 297q104 129 260 170v166h242v-166q155 -40 259 -170q103 -128 103 -297h-322q0 66 -48 114t-114 48q-68 0 -114 -48q-47 -49 -47 -114q0 -66 47 -115q46 -48 114 -48q200 0 342 -142t142 -342q0 -170 -103 -300q-104 -131 -259 -171v-165h-242v165 q-155 40 -259 171q-103 130 -103 300h323q0 -67 47 -114t114 -47q65 0 114 47q48 47 48 114q0 66 -48 114t-114 48l-2 1q-200 0 -342 142t-142 342z" />
<glyph unicode="%" horiz-adv-x="1504" d="M49 4l1013 1606h240l-1013 -1606h-240zM49 1288q0 132 94 226q95 95 228 95q131 0 226 -95t95 -226q0 -132 -95 -227t-226 -95q-133 0 -228 95q-94 94 -94 227zM250 1289q1 -55 37 -88t84 -33q47 0 83 34.5t37 86.5q1 50 -38 86t-83 36h2q-45 0 -84 -34.5t-38 -87.5z M731 365q0 149 106 255q107 107 256 107q148 0 255 -107q106 -106 106 -255t-106 -255t-255 -106q-150 0 -256 106t-106 255zM923 365q0 -76 46.5 -122.5t122.5 -46.5t122.5 46.5t46.5 122.5t-46.5 122.5t-122.5 46.5t-122.5 -46.5t-46.5 -122.5z" />
<glyph unicode="&#x26;" horiz-adv-x="1503" d="M59 499q1 54 15.5 104t31 83t51.5 75.5t54 62t61 60.5q7 7 27 22q-41 56 -71.5 142.5t-32.5 152.5q0 152 123 275q56 56 150 101t182 45q160 0 286 -102t160 -259l-320 -68q-9 44 -44 73t-82 29q-49 0 -82 -25.5t-42 -70.5q-6 -33 81 -189q69 -119 203 -253 q8 -8 75.5 -79.5t91.5 -93.5q5 20 7.5 47t4 47.5t3 59.5t2.5 63l301 4q-4 -145 -16.5 -239t-49.5 -176q49 -31 78.5 -47.5t75.5 -33.5t81 -16l-1 -299q-150 0 -306 90q-86 51 -111 72q-29 -35 -66 -62q-66 -50 -178 -80.5t-210 -30.5q-108 0 -206 40t-173 112 q-154 149 -154 364zM365 495q0 -39 21 -80.5t50 -69.5q47 -46 157 -46q39 0 102 18.5t89 38.5q7 4 14 15v-1q-2 2 -28.5 25t-47.5 41.5t-56.5 52.5t-63 64.5t-58.5 69t-52 73.5q-27 -19 -37 -27t-32.5 -29.5t-32 -38.5t-18 -45.5t-7.5 -60.5z" />
<glyph unicode="'" horiz-adv-x="383" d="M40 1612h303l-41 -523h-222z" />
<glyph unicode="(" horiz-adv-x="729" d="M79 806q0 432 147 750t360 360l55 -262q-106 0 -181 -249t-75 -599t75 -599t181 -249l-55 -262q-213 42 -360 360t-147 750z" />
<glyph unicode=")" horiz-adv-x="731" d="M90 -42q104 0 181 249q76 247 76 599t-76 599q-77 249 -181 249l55 262q212 -42 359 -360t147 -750t-147 -750t-359 -360z" />
<glyph unicode="*" horiz-adv-x="764" d="M31 1208l221 116l-221 116l113 166l150 -113l-18 204h213l-18 -204l150 113l113 -166l-220 -116l220 -116l-113 -165l-150 113l18 -204h-213l18 204l-150 -113z" />
<glyph unicode="+" horiz-adv-x="1007" d="M60 484v282h302v403h282v-403h303v-282h-303v-403h-282v403h-302z" />
<glyph unicode="," horiz-adv-x="563" d="M60 165q0 89 63 151.5t151 62.5l-1 1q89 0 154 -65t65 -154q0 -102 -37 -175q-33 -67 -79.5 -114t-130.5 -76q-27 -9 -81.5 0.5t-63.5 21.5q-5 8 13.5 23.5t43.5 32.5t42 44.5t8 56.5q-65 21 -106 71.5t-41 118.5z" />
<glyph unicode="-" horiz-adv-x="886" d="M50 484v282h786v-282h-786z" />
<glyph unicode="." horiz-adv-x="542" d="M60 169q0 85 60 145.5t146 60.5t146 -60.5t60 -145.5t-60 -145.5t-146 -60.5t-146 60.5t-60 145.5z" />
<glyph unicode="/" horiz-adv-x="972" d="M0 -201l690 2015h282l-690 -2015h-282z" />
<glyph unicode="0" horiz-adv-x="1331" d="M39 802q0 157 44 299.5t123 252.5q87 122 205.5 190.5t253.5 68.5t253.5 -68.5t205.5 -190.5q79 -110 123 -252.5t44 -299.5t-44 -300t-123 -253q-87 -122 -205.5 -190.5t-253.5 -68.5t-253.5 68.5t-205.5 190.5q-79 110 -123 253t-44 300zM362 802q0 -218 105 -365 q87 -121 197 -121t197 121q105 147 105 365t-105 365q-87 121 -197 121t-197 -121q-105 -147 -105 -365z" />
<glyph unicode="1" horiz-adv-x="624" d="M60 1138v336l484 138v-1612h-323v1185z" />
<glyph unicode="2" horiz-adv-x="1290" d="M69 0l55 184q185 130 362 294.5t294 320.5t117 242q0 103 -73 176t-177 73q-103 0 -176 -73t-73 -176h-323q0 116 44.5 220.5t123.5 184.5t184 124t221 44t220.5 -44t184.5 -124t124 -184.5t44 -220.5q0 -254 -272 -542q-119 -125 -181 -176h446v-323h-1145z" />
<glyph unicode="3" horiz-adv-x="1170" d="M40 384l316 81q16 -64 74 -107q57 -43 132 -43q90 0 152 60q60 57 60 138q1 123 -103.5 211.5t-287.5 97.5l68 133q121 22 181.5 80t60.5 133l-3 -2q0 53 -38 91t-92 38q-47 0 -82 -29t-44 -73l-320 68q34 157 160 259t286 102q189 0 323 -134t134 -323q0 -151 -89 -272 q8 -6 11 -9q76 -73 118 -169t42 -204t-42 -204t-118 -169q-74 -72 -172 -112t-206 -40q-182 0 -329 110q-147 111 -192 288z" />
<glyph unicode="4" horiz-adv-x="1391" d="M40 343l479 1269l348 -2l-343 -945h343v625h322v-625h162v-322h-162v-343h-322v343h-827z" />
<glyph unicode="5" horiz-adv-x="1205" d="M41 329l321 103q74 -120 217 -120q104 0 177 70t73 169q0 98 -73 170q-40 39 -75 57t-84 18v1q-113 0 -170.5 -23t-152.5 -106l-179 93l82 835h857v-321h-590l-18 -189q48 15 79 19t92 4q145 0 276 -75.5t211.5 -205t80.5 -276.5q0 -232 -172 -397q-173 -165 -414 -165 q-179 0 -325 95t-213 244z" />
<glyph unicode="6" horiz-adv-x="1209" d="M38 562q0 136 63 259l6.5 13t10.5 20q10 20 18 34l417 723l367 -2l-278 -485q219 -17 371 -178q153 -162 153 -384q0 -233 -166 -398t-399 -165t-398 165t-165 398zM362 563q0 -100 71 -171q70 -70 171 -70q100 0 171 71t71 171t-71 171t-171 71l-1 -1q-100 0 -171 -71 q-70 -70 -70 -171z" />
<glyph unicode="7" horiz-adv-x="1219" d="M50 1129v483h1129l-509 -1612h-338l403 1296h-362v-167h-323z" />
<glyph unicode="8" horiz-adv-x="1128" d="M38 523q0 225 167 383q-86 116 -86 261q0 183 130 313t313 130t313 -130t130 -313q0 -145 -86 -261q167 -156 167 -383q0 -216 -154 -370t-370 -154t-370 154t-154 370zM359 520q0 -83 59 -142q58 -58 143 -58q82 0 143 59q60 59 60 143q0 83 -60 143t-142 60l-3 -3 q-83 0 -142 -60q-58 -59 -58 -142zM442 1169q0 -49 36 -85t86 -36l-2 -1q50 0 86 36t36 86q0 49 -36 85t-85 36t-85 -36t-36 -85z" />
<glyph unicode="9" horiz-adv-x="1209" d="M40 1047q0 233 165 399t398 166t399 -166t166 -399q0 -137 -63 -258q-9 -15 -17 -33q-10 -22 -17 -32l-417 -724l-369 -1l278 485q-219 17 -371 179q-152 163 -152 384zM362 1048q0 -100 71 -171t171 -71h-1q100 0 171 71t71 171q0 98 -71 171q-70 72 -171 72t-171 -72 q-70 -71 -70 -171z" />
<glyph unicode=":" horiz-adv-x="572" d="M70 169q0 85 60 145.5t146 60.5t146 -60.5t60 -145.5t-60 -145.5t-146 -60.5t-146 60.5t-60 145.5zM70 1079q0 85 60 145.5t146 60.5t146 -60.5t60 -145.5t-60 -145.5t-146 -60.5t-146 60.5t-60 145.5z" />
<glyph unicode=";" horiz-adv-x="593" d="M70 165q0 89 63 151.5t151 62.5l-1 1q89 0 154 -65t65 -154q0 -102 -37 -175q-33 -67 -79.5 -114t-130.5 -76q-27 -9 -81.5 0.5t-63.5 21.5q-5 8 13.5 23.5t43.5 32.5t42 44.5t8 56.5q-65 21 -106 71.5t-41 118.5zM71 1079q0 85 60.5 145.5t145.5 60.5t145.5 -60.5 t60.5 -145.5t-60.5 -145.5t-145.5 -60.5t-145.5 60.5t-60.5 145.5z" />
<glyph unicode="&#x3c;" horiz-adv-x="1268" d="M20 647l1208 647v-316l-618 -331l618 -331v-316z" />
<glyph unicode="=" horiz-adv-x="936" d="M50 323v282h806v-282h-806zM50 806v283h806v-283h-806z" />
<glyph unicode="&#x3e;" horiz-adv-x="1269" d="M40 0v316l619 331l-619 331v316l1209 -647z" />
<glyph unicode="?" horiz-adv-x="1076" d="M38 1131q0 201 144 345t345 144t345 -144t144 -345q0 -95 -43 -157q-46 -66 -100 -119q-16 -16 -42 -40.5t-43 -40t-39 -39.5t-35 -42.5t-26.5 -45t-19 -52t-5.5 -58t7 -67.5l-327 -1v28q0 73 11.5 130.5t38.5 107.5t58.5 89t82.5 90q48 47 101 110q53 64 53 107 q0 67 -48 115t-114 48q-67 0 -115 -48t-48 -115h-325zM311 169q0 85 60 143.5t146 58.5q85 0 145.5 -60.5t60.5 -145.5t-60 -143.5t-146 -58.5q-85 0 -145.5 60.5t-60.5 145.5z" />
<glyph unicode="@" horiz-adv-x="2128" d="M43 791q0 438 292 731q297 298 732 298q453 0 737 -284q287 -287 287 -732q0 -101 -23.5 -196.5t-71.5 -178t-115 -143.5t-160.5 -92.5t-201.5 -23.5q-107 8 -187 69.5t-119 178.5q-49 -71 -191 -71q-88 0 -155.5 31t-133.5 97q-128 128 -128 308q0 108 52.5 208 t146.5 164t203 64q43 0 106 -27t82 -65v93h273l2 -612q0 -84 39 -122t81 -27q50 13 88.5 53.5t60 93.5t32 104.5t10.5 96.5q0 314 -196 510q-194 194 -521 194l4 -2q-312 0 -515 -202q-202 -202 -202 -515q0 -312 203 -514q202 -202 514 -202q74 0 113.5 1t104 10.5 t106.5 28.5l110 -286q-60 -29 -135.5 -43t-125 -16t-143.5 -2h-30q-440 0 -732 292q-293 292 -293 730zM888 782q0 -64 45 -109t109 -45q68 0 110.5 38.5t43.5 114.5q0 73 -43.5 113.5t-109.5 40.5l-2 1q-63 0 -108 -45.5t-45 -108.5z" />
<glyph unicode="A" horiz-adv-x="1544" d="M37 4l731 1638l733 -1638h-348q-18 41 -54 122t-54 122h-549l-2 1q-20 -45 -110 -245h-347zM628 533h285l-142 335z" />
<glyph unicode="B" horiz-adv-x="1244" d="M81 3v1604h401h-1q162 0 280 -116t121 -277q0 -47 -28 -133q149 -65 249 -200.5t100 -316.5q0 -231 -165 -396t-396 -165h-561zM401 324h240q99 0 170 70.5t71 168.5q0 100 -71 171q-32 32 -70.5 41t-99.5 9h-240v-460zM401 1094h80q41 0 69 27t28 67q0 41 -28.5 70 t-68.5 29h-80v-193z" />
<glyph unicode="C" horiz-adv-x="1470" d="M40 804q0 335 239 576q239 240 575 240l-1 -4q169 0 316 -64q149 -64 261 -174l-230 -230q-146 144 -345 144q-203 0 -345 -144q-143 -145 -143 -345q0 -202 143 -345t345 -143t346 144l230 -230q-112 -110 -261 -175q-147 -64 -316 -64q-336 0 -575 239t-239 575z" />
<glyph unicode="D" horiz-adv-x="1321" d="M79 0v1608h398v1q168 0 319.5 -60t268.5 -177q106 -106 161.5 -259t55.5 -309.5t-55.5 -309.5t-161.5 -258q-117 -116 -268.5 -176t-319.5 -60h-398zM402 323h76h1q217 0 348 131t131 351q0 219 -132 351q-131 132 -350 132h-74v-965z" />
<glyph unicode="E" horiz-adv-x="1117" d="M80 0v1612h967v-322h-644v-323h483v-322h-483v-322h644v-323h-644h-323z" />
<glyph unicode="F" horiz-adv-x="1087" d="M80 0v645v322v645h967v-322h-644v-323h483v-322h-483v-322v-323h-323z" />
<glyph unicode="G" d="M40 804q0 335 239 576q239 240 575 240l1 -3q169 0 316 -64q149 -65 261 -174l-230 -230q-146 144 -345 144q-203 0 -345 -144q-143 -145 -143 -345q0 -202 143 -345t345 -143q160 0 284 91q125 92 176 234h-461v325h461h189h148q16 -74 16 -162q0 -336 -240 -575 q-241 -239 -576 -239q-336 0 -575 239t-239 575z" />
<glyph unicode="H" horiz-adv-x="1289" d="M80 0v1612h323v-645h483v645h323v-1612h-323v645h-483v-645h-323z" />
<glyph unicode="I" horiz-adv-x="483" d="M80 0v1612h323v-1612h-323z" />
<glyph unicode="J" horiz-adv-x="1132" d="M40 99l163 283q71 -58 159 -69q21 -3 40 -3h3h4q18 0 39 3q106 14 185 93q96 94 96 228v33v290l-6 653l322 -2l6 -647v-329q0 -268 -190 -457q-187 -186 -450 -189h-6h-5q-202 1 -360 113z" />
<glyph unicode="K" horiz-adv-x="1248" d="M80 0v1612h323v-612l355 612h373l-476 -819l553 -793h-393l-412 592v-592h-323z" />
<glyph unicode="L" horiz-adv-x="1087" d="M80 0v1612h323v-1289h644v-323h-967z" />
<glyph unicode="M" horiz-adv-x="1732" d="M80 0v1642l786 -1078l786 1078v-1642h-323v665l-463 -639l-463 639v-665h-323z" />
<glyph unicode="N" horiz-adv-x="1450" d="M80 0v1642l967 -921v891h323v-1642l-967 922v-892h-323z" />
<glyph unicode="O" d="M40 804q0 335 239 576q239 240 575 240t576 -240t240 -576t-240 -575q-241 -239 -576 -239q-336 0 -575 239t-239 575zM366 806q0 -202 143 -345t345 -143q200 0 345 143q144 143 144 345q0 201 -144 345t-345 144q-202 0 -345 -144q-143 -145 -143 -345z" />
<glyph unicode="P" horiz-adv-x="1269" d="M80 0v484v564v564h323h241q233 0 399 -166t166 -399t-166 -398q-167 -165 -399 -165h-241v-484h-323zM403 806l241 -1q100 0 171 71t71 171q0 98 -71 171q-71 72 -171 72h-241v-242v-242z" />
<glyph unicode="Q" horiz-adv-x="1711" d="M40 804q0 335 239 576q239 240 575 240l-3 -1q336 0 576 -240t240 -576q0 -245 -135 -448l138 -137l-230 -229l-138 136q-206 -135 -448 -135q-336 0 -575 239t-239 575zM363 805q0 -202 143 -345t345 -143q111 0 211 48l-212 211l230 230l212 -211q48 99 48 210 q0 201 -144 345t-345 144q-203 0 -345 -144q-143 -145 -143 -345z" />
<glyph unicode="R" horiz-adv-x="1279" d="M79 1614h524q119 0 228.5 -42t190.5 -123q84 -84 120 -169t36 -201v-50q0 -87 -24.5 -158.5t-77.5 -145.5q-48 -67 -95.5 -99t-135.5 -65l364 -561h-394l-412 630v-630h-323zM402 838l231 -1q49 0 80.5 14t67.5 50q64 64 64 168q0 50 -14.5 86t-49.5 72q-64 65 -198 65 h-181v-454z" />
<glyph unicode="S" horiz-adv-x="1117" d="M69 1134q0 201 144 345t346 144q201 0 345 -144t144 -345h-325q0 66 -48 114t-114 48q-67 0 -115 -48t-48 -115q0 -87 70 -132q30 -20 45.5 -29.5t34.5 -17.5t26.5 -10.5t39 -11t54.5 -15.5q191 -56 313 -212q68 -88 68 -224q0 -202 -144 -346t-345 -144q-202 0 -346 144 t-144 346h326q0 -67 48 -115t115 -48l-1 2q67 0 115 48t48 115q0 103 -82 133q-103 38 -201 72q-89 31 -168 89t-135 134q-66 90 -66 223z" />
<glyph unicode="T" horiz-adv-x="1249" d="M60 1290v322h403h323h403v-322h-403v-1290h-323v1290h-403z" />
<glyph unicode="U" horiz-adv-x="1455" d="M79 640v324v648h325v-648v-290v-33q0 -133 95 -228t228 -95q131 0 228 95q96 95 96 228v33v290v648h325v-648v-324q0 -269 -190 -459t-458 -190q-269 0 -459 190t-190 459z" />
<glyph unicode="V" horiz-adv-x="1530" d="M40 1612h64h212h13h52l382 -879l382 879h68h277l-726 -1642z" />
<glyph unicode="W" horiz-adv-x="1962" d="M40 1612h347l297 -760l297 760l297 -760l296 760h348l-644 -1642l-300 799l-294 -799z" />
<glyph unicode="X" horiz-adv-x="1369" d="M40 1l458 806l-458 805h370l274 -480l274 480h371l-460 -805l460 -807h-371l-274 481l-274 -481z" />
<glyph unicode="Y" horiz-adv-x="1369" d="M40 1612h366l278 -511l278 511h367l-484 -889v-723h-322v723z" />
<glyph unicode="Z" horiz-adv-x="1249" d="M60 0l617 1290h-617v322h1129l-617 -1289h617v-323h-1129z" />
<glyph unicode="[" horiz-adv-x="1070" d="M135 821q0 166 117 283t283 117t283 -117t117 -283t-117 -283t-283 -117t-283 117t-117 283z" />
<glyph unicode="\" horiz-adv-x="932" d="M0 1814h242l690 -2015h-242z" />
<glyph unicode="]" horiz-adv-x="1070" d="M135 821q0 166 117 283t283 117t283 -117t117 -283t-117 -283t-283 -117t-283 117t-117 283z" />
<glyph unicode="^" horiz-adv-x="944" d="M20 839l451 773l453 -773h-280l-173 294l-172 -294h-279z" />
<glyph unicode="_" horiz-adv-x="1440" d="M20 101h1400v-221h-1400v221z" />
<glyph unicode="`" horiz-adv-x="480" d="M-22 1559l272 136l208 -564l-168 -80z" />
<glyph unicode="a" horiz-adv-x="1544" d="M39 4l731 1638l733 -1638h-69h-210h-14h-56l-104 233l-5 11h-549l-4 -12l-105 -232h-56h-13h-210h-69zM628 533h285l-142 335z" />
<glyph unicode="b" horiz-adv-x="1244" d="M81 3v1604h401h-1q162 0 280 -116t121 -277q0 -47 -28 -133q149 -65 249 -200.5t100 -316.5q0 -231 -165 -396t-396 -165h-561zM401 324h240q99 0 170 70.5t71 168.5q0 100 -71 171q-32 32 -70.5 41t-99.5 9h-240v-460zM401 1094h80q41 0 69 27t28 67q0 41 -28.5 70 t-68.5 29h-80v-193z" />
<glyph unicode="c" horiz-adv-x="1470" d="M40 804q0 335 239 576q239 240 575 240l-1 -4q169 0 316 -64q149 -64 261 -174l-230 -230q-146 144 -345 144q-203 0 -345 -144q-143 -145 -143 -345q0 -202 143 -345t345 -143t346 144l230 -230q-112 -110 -261 -175q-147 -64 -316 -64q-336 0 -575 239t-239 575z" />
<glyph unicode="d" horiz-adv-x="1321" d="M79 0v1608h398v1q168 0 319.5 -60t268.5 -177q106 -106 161.5 -259t55.5 -309.5t-55.5 -309.5t-161.5 -258q-117 -116 -268.5 -176t-319.5 -60h-398zM402 323h76h1q217 0 348 131t131 351q0 219 -132 351q-131 132 -350 132h-74v-965z" />
<glyph unicode="e" horiz-adv-x="1117" d="M80 0v1612h967v-322h-644v-323h483v-322h-483v-322h644v-323h-644h-323z" />
<glyph unicode="f" horiz-adv-x="1087" d="M80 0v645v322v645h967v-322h-644v-323h483v-322h-483v-322v-323h-323z" />
<glyph unicode="g" d="M40 804q0 335 239 576q239 240 575 240l1 -3q169 0 316 -64q149 -65 261 -174l-230 -230q-146 144 -345 144q-203 0 -345 -144q-143 -145 -143 -345q0 -202 143 -345t345 -143q160 0 284 91q125 92 176 234h-461v325h461h189h148q16 -74 16 -162q0 -336 -240 -575 q-241 -239 -576 -239q-336 0 -575 239t-239 575z" />
<glyph unicode="h" horiz-adv-x="1289" d="M80 0v1612h323v-645h483v645h323v-1612h-323v645h-483v-645h-323z" />
<glyph unicode="i" horiz-adv-x="483" d="M80 0v1612h323v-1612h-323z" />
<glyph unicode="j" horiz-adv-x="1132" d="M40 99l163 283q71 -58 159 -69q21 -3 40 -3h3h4q18 0 39 3q106 14 185 93q96 94 96 228v33v290l-6 653l322 -2l6 -647v-329q0 -268 -190 -457q-187 -186 -450 -189h-6h-5q-202 1 -360 113z" />
<glyph unicode="k" horiz-adv-x="1248" d="M80 0v1612h323v-612l355 612h373l-476 -819l553 -793h-393l-412 592v-592h-323z" />
<glyph unicode="l" horiz-adv-x="1087" d="M80 0v1612h323v-1289h644v-323h-967z" />
<glyph unicode="m" horiz-adv-x="1732" d="M80 0v1642l786 -1078l786 1078v-1642h-323v665l-463 -639l-463 639v-665h-323z" />
<glyph unicode="n" horiz-adv-x="1450" d="M80 0v1642l967 -921v891h323v-1642l-967 922v-892h-323z" />
<glyph unicode="o" d="M40 804q0 335 239 576q239 240 575 240t576 -240t240 -576t-240 -575q-241 -239 -576 -239q-336 0 -575 239t-239 575zM366 806q0 -202 143 -345t345 -143q200 0 345 143q144 143 144 345q0 201 -144 345t-345 144q-202 0 -345 -144q-143 -145 -143 -345z" />
<glyph unicode="p" horiz-adv-x="1269" d="M80 0v484v564v564h323h241q233 0 399 -166t166 -399t-166 -398q-167 -165 -399 -165h-241v-484h-323zM403 806l241 -1q100 0 171 71t71 171q0 98 -71 171q-71 72 -171 72h-241v-242v-242z" />
<glyph unicode="q" horiz-adv-x="1711" d="M40 804q0 335 239 576q239 240 575 240l-3 -1q336 0 576 -240t240 -576q0 -245 -135 -448l138 -137l-230 -229l-138 136q-206 -135 -448 -135q-336 0 -575 239t-239 575zM363 805q0 -202 143 -345t345 -143q111 0 211 48l-212 211l230 230l212 -211q48 99 48 210 q0 201 -144 345t-345 144q-203 0 -345 -144q-143 -145 -143 -345z" />
<glyph unicode="r" horiz-adv-x="1279" d="M79 1614h524q119 0 228.5 -42t190.5 -123q84 -84 120 -169t36 -201v-50q0 -87 -24.5 -158.5t-77.5 -145.5q-48 -67 -95.5 -99t-135.5 -65l364 -561h-394l-412 630v-630h-323zM402 838l231 -1q49 0 80.5 14t67.5 50q64 64 64 168q0 50 -14.5 86t-49.5 72q-64 65 -198 65 h-181v-454z" />
<glyph unicode="s" horiz-adv-x="1117" d="M69 1134q0 201 144 345t346 144q201 0 345 -144t144 -345h-325q0 66 -48 114t-114 48q-67 0 -115 -48t-48 -115q0 -87 70 -132q30 -20 45.5 -29.5t34.5 -17.5t26.5 -10.5t39 -11t54.5 -15.5q191 -56 313 -212q68 -88 68 -224q0 -202 -144 -346t-345 -144q-202 0 -346 144 t-144 346h326q0 -67 48 -115t115 -48l-1 2q67 0 115 48t48 115q0 103 -82 133q-103 38 -201 72q-89 31 -168 89t-135 134q-66 90 -66 223z" />
<glyph unicode="t" horiz-adv-x="1249" d="M60 1290v322h403h323h403v-322h-403v-1290h-323v1290h-403z" />
<glyph unicode="u" horiz-adv-x="1455" d="M79 640v324v648h325v-648v-290v-33q0 -133 95 -228t228 -95q131 0 228 95q96 95 96 228v33v290v648h325v-648v-324q0 -269 -190 -459t-458 -190q-269 0 -459 190t-190 459z" />
<glyph unicode="v" horiz-adv-x="1530" d="M40 1612h64h212h13h52l382 -879l382 879h68h277l-726 -1642z" />
<glyph unicode="w" horiz-adv-x="1962" d="M40 1612h347l297 -760l297 760l297 -760l296 760h348l-644 -1642l-300 799l-294 -799z" />
<glyph unicode="x" horiz-adv-x="1369" d="M40 1l458 806l-458 805h370l274 -480l274 480h371l-460 -805l460 -807h-371l-274 481l-274 -481z" />
<glyph unicode="y" horiz-adv-x="1369" d="M40 1612h366l278 -511l278 511h367l-484 -889v-723h-322v723z" />
<glyph unicode="z" horiz-adv-x="1249" d="M60 0l617 1290h-617v322h1129l-617 -1289h617v-323h-1129z" />
<glyph unicode="{" horiz-adv-x="1070" d="M135 821q0 166 117 283t283 117t283 -117t117 -283t-117 -283t-283 -117t-283 117t-117 283zM370 820q0 -68 48.5 -116.5t116.5 -48.5t116.5 48.5t48.5 116.5t-48.5 116.5t-116.5 48.5t-116.5 -48.5t-48.5 -116.5z" />
<glyph unicode="|" horiz-adv-x="592" d="M200 -191v2015h192v-2015h-192z" />
<glyph unicode="}" horiz-adv-x="1070" d="M135 821q0 166 117 283t283 117t283 -117t117 -283t-117 -283t-283 -117t-283 117t-117 283zM370 820q0 -68 48.5 -116.5t116.5 -48.5t116.5 48.5t48.5 116.5t-48.5 116.5t-116.5 48.5t-116.5 -48.5t-48.5 -116.5z" />
<glyph unicode="~" horiz-adv-x="2048" d="M103 86v16v1421v16h16h1811h16v-16v-1421v-16h-16h-1811h-16zM136 118h1778v1388h-1778v-1388zM169 805l62 504l201 -331l282 331l-70 -571l-62 -504l-262 283l-33 -274h-99l62 504l260 -283l32 260l35 285l-166 -196l-118 196l-25 -204h-99zM657 245l61 495h296l-12 -99 h-198l-12 -99h148l-12 -99h-148l-12 -99h198l-12 -99h-198h-99zM675 805l286 503l164 -503l20 -67l84 -270l150 270h21h85l-285 -504l-161 504l-25 74l-21 65l-1 3h-169l-1 -4l-41 -71h-17h-4h-64h-21zM874 967h88l-31 103zM1161 804l20 148l21 173l21 173h99h62 q78 0 123 -51q42 -48 34 -113l-2 -15q-7 -50 -44 -93q-18 -20 -34 -30t-44 -20l91 -172h-121l-103 194l-24 -194h-99zM1293 1060l72 -1q26 0 47 20q22 19 25 51q3 29 -14 49t-58 20h-55l-8 -68zM1564 950h100q-3 -21 10 -36q14 -15 34 -15t37 15q16 14 19 36q5 32 -20 41 q-24 9 -33 12v4q-12 4 -26 9q-22 8 -44 24q-23 16 -40 44q-17 27 -12 68q7 62 57 105q50 44 111 44t100 -44q39 -43 31 -105h-100q3 21 -10 36q-14 15 -34 15t-37 -15q-16 -14 -19 -36q-3 -26 17 -40q21 -14 30 -17l27 -9q23 -8 47 -24q25 -17 42 -43q18 -26 13 -69 q-8 -62 -57 -105q-50 -44 -111 -44q-62 0 -101 44q-39 43 -31 105z" />
<glyph horiz-adv-x="2048" d="M103 86v16v1421v16h16h1811h16v-16v-1421v-16h-16h-1811h-16zM136 118h1778v1388h-1778v-1388zM169 805l62 504l201 -331l282 331l-70 -571l-62 -504l-262 283l-33 -274h-99l62 504l260 -283l32 260l35 285l-166 -196l-118 196l-25 -204h-99zM657 245l61 495h296l-12 -99 h-198l-12 -99h148l-12 -99h-148l-12 -99h198l-12 -99h-198h-99zM675 805l286 503l164 -503l20 -67l84 -270l150 270h21h85l-285 -504l-161 504l-25 74l-21 65l-1 3h-169l-1 -4l-41 -71h-17h-4h-64h-21zM874 967h88l-31 103zM1161 804l20 148l21 173l21 173h99h62 q78 0 123 -51q42 -48 34 -113l-2 -15q-7 -50 -44 -93q-18 -20 -34 -30t-44 -20l91 -172h-121l-103 194l-24 -194h-99zM1293 1060l72 -1q26 0 47 20q22 19 25 51q3 29 -14 49t-58 20h-55l-8 -68zM1564 950h100q-3 -21 10 -36q14 -15 34 -15t37 15q16 14 19 36q5 32 -20 41 q-24 9 -33 12v4q-12 4 -26 9q-22 8 -44 24q-23 16 -40 44q-17 27 -12 68q7 62 57 105q50 44 111 44t100 -44q39 -43 31 -105h-100q3 21 -10 36q-14 15 -34 15t-37 -15q-16 -14 -19 -36q-3 -26 17 -40q21 -14 30 -17l27 -9q23 -8 47 -24q25 -17 42 -43q18 -26 13 -69 q-8 -62 -57 -105q-50 -44 -111 -44q-62 0 -101 44q-39 43 -31 105z" />
<glyph horiz-adv-x="2048" d="M103 86v16v1421v16h16h1811h16v-16v-1421v-16h-16h-1811h-16zM136 118h1778v1388h-1778v-1388zM169 805l62 504l201 -331l282 331l-70 -571l-62 -504l-262 283l-33 -274h-99l62 504l260 -283l32 260l35 285l-166 -196l-118 196l-25 -204h-99zM657 245l61 495h296l-12 -99 h-198l-12 -99h148l-12 -99h-148l-12 -99h198l-12 -99h-198h-99zM675 805l286 503l164 -503l20 -67l84 -270l150 270h21h85l-285 -504l-161 504l-25 74l-21 65l-1 3h-169l-1 -4l-41 -71h-17h-4h-64h-21zM874 967h88l-31 103zM1161 804l20 148l21 173l21 173h99h62 q78 0 123 -51q42 -48 34 -113l-2 -15q-7 -50 -44 -93q-18 -20 -34 -30t-44 -20l91 -172h-121l-103 194l-24 -194h-99zM1293 1060l72 -1q26 0 47 20q22 19 25 51q3 29 -14 49t-58 20h-55l-8 -68zM1564 950h100q-3 -21 10 -36q14 -15 34 -15t37 15q16 14 19 36q5 32 -20 41 q-24 9 -33 12v4q-12 4 -26 9q-22 8 -44 24q-23 16 -40 44q-17 27 -12 68q7 62 57 105q50 44 111 44t100 -44q39 -43 31 -105h-100q3 21 -10 36q-14 15 -34 15t-37 -15q-16 -14 -19 -36q-3 -26 17 -40q21 -14 30 -17l27 -9q23 -8 47 -24q25 -17 42 -43q18 -26 13 -69 q-8 -62 -57 -105q-50 -44 -111 -44q-62 0 -101 44q-39 43 -31 105z" />
<glyph horiz-adv-x="2048" d="M103 86v16v1421v16h16h1811h16v-16v-1421v-16h-16h-1811h-16zM136 118h1778v1388h-1778v-1388zM169 805l62 504l201 -331l282 331l-70 -571l-62 -504l-262 283l-33 -274h-99l62 504l260 -283l32 260l35 285l-166 -196l-118 196l-25 -204h-99zM657 245l61 495h296l-12 -99 h-198l-12 -99h148l-12 -99h-148l-12 -99h198l-12 -99h-198h-99zM675 805l286 503l164 -503l20 -67l84 -270l150 270h21h85l-285 -504l-161 504l-25 74l-21 65l-1 3h-169l-1 -4l-41 -71h-17h-4h-64h-21zM874 967h88l-31 103zM1161 804l20 148l21 173l21 173h99h62 q78 0 123 -51q42 -48 34 -113l-2 -15q-7 -50 -44 -93q-18 -20 -34 -30t-44 -20l91 -172h-121l-103 194l-24 -194h-99zM1293 1060l72 -1q26 0 47 20q22 19 25 51q3 29 -14 49t-58 20h-55l-8 -68zM1564 950h100q-3 -21 10 -36q14 -15 34 -15t37 15q16 14 19 36q5 32 -20 41 q-24 9 -33 12v4q-12 4 -26 9q-22 8 -44 24q-23 16 -40 44q-17 27 -12 68q7 62 57 105q50 44 111 44t100 -44q39 -43 31 -105h-100q3 21 -10 36q-14 15 -34 15t-37 -15q-16 -14 -19 -36q-3 -26 17 -40q21 -14 30 -17l27 -9q23 -8 47 -24q25 -17 42 -43q18 -26 13 -69 q-8 -62 -57 -105q-50 -44 -111 -44q-62 0 -101 44q-39 43 -31 105z" />
<glyph unicode="&#xa1;" horiz-adv-x="582" d="M93 1251q1 85 61.5 143t146.5 57q85 -1 145 -61.5t59 -146.5q-1 -85 -61.5 -143t-146.5 -57q-85 1 -145 61.5t-59 146.5zM96 -203l66 1139l269 -3q4 -234 19.5 -648.5t17.5 -491.5z" />
<glyph unicode="&#xa2;" horiz-adv-x="1183" d="M40 770q0 261 186 447q144 144 333 177v300l192 1v-295q91 -11 170 -46q116 -50 203 -135l-180 -180q-113 112 -270 112q-158 0 -269 -112q-111 -113 -111 -270q0 -158 111 -269t269 -111t270 112l180 -180q-87 -87 -203 -137q-79 -35 -170 -46v-289h-192v295 q-189 33 -333 177q-186 186 -186 449z" />
<glyph unicode="&#xa3;" horiz-adv-x="1194" d="M60 673v180h106v24l-1 92q0 267 189 456q187 186 449 189h7h5q34 0 60.5 -2.5t43.5 -4t42 -9.5t36.5 -12t47.5 -18t56 -21l-163 -282q-49 24 -124 26h-3h-3q-19 0 -40 -3q-104 -13 -184 -92q-96 -94 -96 -228v-33v-82h336v-180h-336v-27v-207h-2v-118h638v-320h-769h-189 h-84v320h84v118v234h-106z" />
<glyph unicode="&#xa4;" horiz-adv-x="1112" d="M40 350l181 178q-64 100 -62.5 219.5t67.5 218.5l-177 180l115 114l177 -180q100 65 219.5 64.5t218.5 -65.5l179 176l116 -115l-178 -176q66 -100 65 -221.5t-68 -221.5l176 -179l-115 -114l-177 179q-101 -65 -222 -64t-221 69l-180 -177zM393.5 746 q-0.5 -68 47.5 -117t116 -49.5t117 47.5t49.5 116t-47.5 117t-116 49.5t-117 -47.5t-49.5 -116z" />
<glyph unicode="&#xa5;" horiz-adv-x="1369" d="M40 1612h366l278 -511l278 511h367l-450 -826h326v-166h-360v-94h360v-166h-360v-360h-322v360h-368v166h368v94h-368v166h334z" />
<glyph unicode="&#xa7;" horiz-adv-x="2048" d="M103 86v16v1421v16h16h1811h16v-16v-1421v-16h-16h-1811h-16zM136 118h1778v1388h-1778v-1388zM169 805l62 504l201 -331l282 331l-70 -571l-62 -504l-262 283l-33 -274h-99l62 504l260 -283l32 260l35 285l-166 -196l-118 196l-25 -204h-99zM657 245l61 495h296l-12 -99 h-198l-12 -99h148l-12 -99h-148l-12 -99h198l-12 -99h-198h-99zM675 805l286 503l164 -503l20 -67l84 -270l150 270h21h85l-285 -504l-161 504l-25 74l-21 65l-1 3h-169l-1 -4l-41 -71h-17h-4h-64h-21zM874 967h88l-31 103zM1161 804l20 148l21 173l21 173h99h62 q78 0 123 -51q42 -48 34 -113l-2 -15q-7 -50 -44 -93q-18 -20 -34 -30t-44 -20l91 -172h-121l-103 194l-24 -194h-99zM1293 1060l72 -1q26 0 47 20q22 19 25 51q3 29 -14 49t-58 20h-55l-8 -68zM1564 950h100q-3 -21 10 -36q14 -15 34 -15t37 15q16 14 19 36q5 32 -20 41 q-24 9 -33 12v4q-12 4 -26 9q-22 8 -44 24q-23 16 -40 44q-17 27 -12 68q7 62 57 105q50 44 111 44t100 -44q39 -43 31 -105h-100q3 21 -10 36q-14 15 -34 15t-37 -15q-16 -14 -19 -36q-3 -26 17 -40q21 -14 30 -17l27 -9q23 -8 47 -24q25 -17 42 -43q18 -26 13 -69 q-8 -62 -57 -105q-50 -44 -111 -44q-62 0 -101 44q-39 43 -31 105z" />
<glyph unicode="&#xa9;" horiz-adv-x="2048" d="M103 86v16v1421v16h16h1811h16v-16v-1421v-16h-16h-1811h-16zM136 118h1778v1388h-1778v-1388zM169 805l62 504l201 -331l282 331l-70 -571l-62 -504l-262 283l-33 -274h-99l62 504l260 -283l32 260l35 285l-166 -196l-118 196l-25 -204h-99zM657 245l61 495h296l-12 -99 h-198l-12 -99h148l-12 -99h-148l-12 -99h198l-12 -99h-198h-99zM675 805l286 503l164 -503l20 -67l84 -270l150 270h21h85l-285 -504l-161 504l-25 74l-21 65l-1 3h-169l-1 -4l-41 -71h-17h-4h-64h-21zM874 967h88l-31 103zM1161 804l20 148l21 173l21 173h99h62 q78 0 123 -51q42 -48 34 -113l-2 -15q-7 -50 -44 -93q-18 -20 -34 -30t-44 -20l91 -172h-121l-103 194l-24 -194h-99zM1293 1060l72 -1q26 0 47 20q22 19 25 51q3 29 -14 49t-58 20h-55l-8 -68zM1564 950h100q-3 -21 10 -36q14 -15 34 -15t37 15q16 14 19 36q5 32 -20 41 q-24 9 -33 12v4q-12 4 -26 9q-22 8 -44 24q-23 16 -40 44q-17 27 -12 68q7 62 57 105q50 44 111 44t100 -44q39 -43 31 -105h-100q3 21 -10 36q-14 15 -34 15t-37 -15q-16 -14 -19 -36q-3 -26 17 -40q21 -14 30 -17l27 -9q23 -8 47 -24q25 -17 42 -43q18 -26 13 -69 q-8 -62 -57 -105q-50 -44 -111 -44q-62 0 -101 44q-39 43 -31 105z" />
<glyph unicode="&#xad;" horiz-adv-x="886" d="M50 484v282h786v-282h-786z" />
<glyph unicode="&#xae;" horiz-adv-x="2048" d="M103 86v16v1421v16h16h1811h16v-16v-1421v-16h-16h-1811h-16zM136 118h1778v1388h-1778v-1388zM169 805l62 504l201 -331l282 331l-70 -571l-62 -504l-262 283l-33 -274h-99l62 504l260 -283l32 260l35 285l-166 -196l-118 196l-25 -204h-99zM657 245l61 495h296l-12 -99 h-198l-12 -99h148l-12 -99h-148l-12 -99h198l-12 -99h-198h-99zM675 805l286 503l164 -503l20 -67l84 -270l150 270h21h85l-285 -504l-161 504l-25 74l-21 65l-1 3h-169l-1 -4l-41 -71h-17h-4h-64h-21zM874 967h88l-31 103zM1161 804l20 148l21 173l21 173h99h62 q78 0 123 -51q42 -48 34 -113l-2 -15q-7 -50 -44 -93q-18 -20 -34 -30t-44 -20l91 -172h-121l-103 194l-24 -194h-99zM1293 1060l72 -1q26 0 47 20q22 19 25 51q3 29 -14 49t-58 20h-55l-8 -68zM1564 950h100q-3 -21 10 -36q14 -15 34 -15t37 15q16 14 19 36q5 32 -20 41 q-24 9 -33 12v4q-12 4 -26 9q-22 8 -44 24q-23 16 -40 44q-17 27 -12 68q7 62 57 105q50 44 111 44t100 -44q39 -43 31 -105h-100q3 21 -10 36q-14 15 -34 15t-37 -15q-16 -14 -19 -36q-3 -26 17 -40q21 -14 30 -17l27 -9q23 -8 47 -24q25 -17 42 -43q18 -26 13 -69 q-8 -62 -57 -105q-50 -44 -111 -44q-62 0 -101 44q-39 43 -31 105z" />
<glyph unicode="&#xb0;" horiz-adv-x="739" d="M70 1335q0 125 88 213t213 88t213 -88t88 -213t-88 -213t-213 -88t-213 88t-88 213zM248 1336q0 -51 36 -87t87 -36t87 36t36 87t-36 87t-87 36t-87 -36t-36 -87z" />
<glyph unicode="&#xb1;" horiz-adv-x="2048" d="M103 86v16v1421v16h16h1811h16v-16v-1421v-16h-16h-1811h-16zM136 118h1778v1388h-1778v-1388zM169 805l62 504l201 -331l282 331l-70 -571l-62 -504l-262 283l-33 -274h-99l62 504l260 -283l32 260l35 285l-166 -196l-118 196l-25 -204h-99zM657 245l61 495h296l-12 -99 h-198l-12 -99h148l-12 -99h-148l-12 -99h198l-12 -99h-198h-99zM675 805l286 503l164 -503l20 -67l84 -270l150 270h21h85l-285 -504l-161 504l-25 74l-21 65l-1 3h-169l-1 -4l-41 -71h-17h-4h-64h-21zM874 967h88l-31 103zM1161 804l20 148l21 173l21 173h99h62 q78 0 123 -51q42 -48 34 -113l-2 -15q-7 -50 -44 -93q-18 -20 -34 -30t-44 -20l91 -172h-121l-103 194l-24 -194h-99zM1293 1060l72 -1q26 0 47 20q22 19 25 51q3 29 -14 49t-58 20h-55l-8 -68zM1564 950h100q-3 -21 10 -36q14 -15 34 -15t37 15q16 14 19 36q5 32 -20 41 q-24 9 -33 12v4q-12 4 -26 9q-22 8 -44 24q-23 16 -40 44q-17 27 -12 68q7 62 57 105q50 44 111 44t100 -44q39 -43 31 -105h-100q3 21 -10 36q-14 15 -34 15t-37 -15q-16 -14 -19 -36q-3 -26 17 -40q21 -14 30 -17l27 -9q23 -8 47 -24q25 -17 42 -43q18 -26 13 -69 q-8 -62 -57 -105q-50 -44 -111 -44q-62 0 -101 44q-39 43 -31 105z" />
<glyph unicode="&#xbc;" horiz-adv-x="2048" d="M103 86v16v1421v16h16h1811h16v-16v-1421v-16h-16h-1811h-16zM136 118h1778v1388h-1778v-1388zM169 805l62 504l201 -331l282 331l-70 -571l-62 -504l-262 283l-33 -274h-99l62 504l260 -283l32 260l35 285l-166 -196l-118 196l-25 -204h-99zM657 245l61 495h296l-12 -99 h-198l-12 -99h148l-12 -99h-148l-12 -99h198l-12 -99h-198h-99zM675 805l286 503l164 -503l20 -67l84 -270l150 270h21h85l-285 -504l-161 504l-25 74l-21 65l-1 3h-169l-1 -4l-41 -71h-17h-4h-64h-21zM874 967h88l-31 103zM1161 804l20 148l21 173l21 173h99h62 q78 0 123 -51q42 -48 34 -113l-2 -15q-7 -50 -44 -93q-18 -20 -34 -30t-44 -20l91 -172h-121l-103 194l-24 -194h-99zM1293 1060l72 -1q26 0 47 20q22 19 25 51q3 29 -14 49t-58 20h-55l-8 -68zM1564 950h100q-3 -21 10 -36q14 -15 34 -15t37 15q16 14 19 36q5 32 -20 41 q-24 9 -33 12v4q-12 4 -26 9q-22 8 -44 24q-23 16 -40 44q-17 27 -12 68q7 62 57 105q50 44 111 44t100 -44q39 -43 31 -105h-100q3 21 -10 36q-14 15 -34 15t-37 -15q-16 -14 -19 -36q-3 -26 17 -40q21 -14 30 -17l27 -9q23 -8 47 -24q25 -17 42 -43q18 -26 13 -69 q-8 -62 -57 -105q-50 -44 -111 -44q-62 0 -101 44q-39 43 -31 105z" />
<glyph unicode="&#xbd;" horiz-adv-x="2048" d="M103 86v16v1421v16h16h1811h16v-16v-1421v-16h-16h-1811h-16zM136 118h1778v1388h-1778v-1388zM169 805l62 504l201 -331l282 331l-70 -571l-62 -504l-262 283l-33 -274h-99l62 504l260 -283l32 260l35 285l-166 -196l-118 196l-25 -204h-99zM657 245l61 495h296l-12 -99 h-198l-12 -99h148l-12 -99h-148l-12 -99h198l-12 -99h-198h-99zM675 805l286 503l164 -503l20 -67l84 -270l150 270h21h85l-285 -504l-161 504l-25 74l-21 65l-1 3h-169l-1 -4l-41 -71h-17h-4h-64h-21zM874 967h88l-31 103zM1161 804l20 148l21 173l21 173h99h62 q78 0 123 -51q42 -48 34 -113l-2 -15q-7 -50 -44 -93q-18 -20 -34 -30t-44 -20l91 -172h-121l-103 194l-24 -194h-99zM1293 1060l72 -1q26 0 47 20q22 19 25 51q3 29 -14 49t-58 20h-55l-8 -68zM1564 950h100q-3 -21 10 -36q14 -15 34 -15t37 15q16 14 19 36q5 32 -20 41 q-24 9 -33 12v4q-12 4 -26 9q-22 8 -44 24q-23 16 -40 44q-17 27 -12 68q7 62 57 105q50 44 111 44t100 -44q39 -43 31 -105h-100q3 21 -10 36q-14 15 -34 15t-37 -15q-16 -14 -19 -36q-3 -26 17 -40q21 -14 30 -17l27 -9q23 -8 47 -24q25 -17 42 -43q18 -26 13 -69 q-8 -62 -57 -105q-50 -44 -111 -44q-62 0 -101 44q-39 43 -31 105z" />
<glyph unicode="&#xbe;" horiz-adv-x="2048" d="M103 86v16v1421v16h16h1811h16v-16v-1421v-16h-16h-1811h-16zM136 118h1778v1388h-1778v-1388zM169 805l62 504l201 -331l282 331l-70 -571l-62 -504l-262 283l-33 -274h-99l62 504l260 -283l32 260l35 285l-166 -196l-118 196l-25 -204h-99zM657 245l61 495h296l-12 -99 h-198l-12 -99h148l-12 -99h-148l-12 -99h198l-12 -99h-198h-99zM675 805l286 503l164 -503l20 -67l84 -270l150 270h21h85l-285 -504l-161 504l-25 74l-21 65l-1 3h-169l-1 -4l-41 -71h-17h-4h-64h-21zM874 967h88l-31 103zM1161 804l20 148l21 173l21 173h99h62 q78 0 123 -51q42 -48 34 -113l-2 -15q-7 -50 -44 -93q-18 -20 -34 -30t-44 -20l91 -172h-121l-103 194l-24 -194h-99zM1293 1060l72 -1q26 0 47 20q22 19 25 51q3 29 -14 49t-58 20h-55l-8 -68zM1564 950h100q-3 -21 10 -36q14 -15 34 -15t37 15q16 14 19 36q5 32 -20 41 q-24 9 -33 12v4q-12 4 -26 9q-22 8 -44 24q-23 16 -40 44q-17 27 -12 68q7 62 57 105q50 44 111 44t100 -44q39 -43 31 -105h-100q3 21 -10 36q-14 15 -34 15t-37 -15q-16 -14 -19 -36q-3 -26 17 -40q21 -14 30 -17l27 -9q23 -8 47 -24q25 -17 42 -43q18 -26 13 -69 q-8 -62 -57 -105q-50 -44 -111 -44q-62 0 -101 44q-39 43 -31 105z" />
<glyph unicode="&#xbf;" horiz-adv-x="1076" d="M37 294q0 93 44 157q46 66 100 119q16 16 42 40.5t43 40t39 39.5t35 42.5t26.5 45t19 52t5.5 58t-7 67.5h325v-27q0 -73 -11.5 -130.5t-38.5 -107.5t-58.5 -89t-82.5 -90q-48 -47 -101 -110q-53 -64 -53 -107q0 -67 48 -115t114 -48q68 0 116 48t48 115h325 q0 -201 -144 -345t-345 -144t-345 144t-144 345zM331 1260q0 85 60 143.5t146 58.5q85 0 145.5 -60t60.5 -146q0 -85 -60 -143.5t-146 -58.5q-85 0 -145.5 60t-60.5 146z" />
<glyph unicode="&#xc0;" horiz-adv-x="1544" d="M38 4l731 1638l733 -1638h-348q-18 41 -54 122t-54 122h-549l-2 1q-20 -45 -110 -245h-347zM422 2069l187 148l257 -365l-116 -88zM629 533h285l-142 335z" />
<glyph unicode="&#xc1;" horiz-adv-x="1544" d="M37 4l731 1638l733 -1638h-348q-18 41 -54 122t-54 122h-549l-2 1q-20 -45 -110 -245h-347zM622 1852l257 365l187 -148l-328 -305zM628 533h285l-142 335z" />
<glyph unicode="&#xc2;" horiz-adv-x="1544" d="M37 4l731 1638l733 -1638h-348q-18 41 -54 122t-54 122h-549l-2 1q-20 -45 -110 -245h-347zM504 1745l262 413l264 -413h-163l-101 157l-100 -157h-162zM628 533h285l-142 335z" />
<glyph unicode="&#xc3;" horiz-adv-x="1544" d="M38 2l731 1638l733 -1638h-348q-18 41 -54 122t-54 122h-549l-2 1q-20 -45 -110 -245h-347zM425 1860q34 37 54 54.5t53 34t68.5 14.5t89.5 -16t127 -45q107 -46 171 -50t91 13.5t76 71.5l3.5 3.5l3.5 3.5l-2 -192l1 -1q-13 -16 -25 -28.5t-27 -21t-25 -14.5t-30 -6.5 t-30 -2t-36 4.5t-38 9t-46.5 14.5t-50.5 17t-60 21.5q-42 15 -74.5 25t-61.5 14t-48 6t-40.5 -5.5t-34 -12.5t-33.5 -22.5t-33 -29t-38 -38.5zM629 531h285l-142 335z" />
<glyph unicode="&#xc4;" horiz-adv-x="1544" d="M28 6l731 1638l733 -1638h-348q-18 41 -54 122t-54 122h-549l-2 1q-20 -45 -110 -245h-347zM31 5l731 1638l733 -1638h-348q-18 40 -54 122t-54 122h-549l-2 1q-20 -45 -110 -245h-347zM34 4l731 1638l733 -1638h-348q-18 41 -54 122t-54 122h-549l-2 1 q-20 -45 -110 -245h-347zM37 3l731 1638l733 -1638h-348q-18 40 -54 122t-54 122h-549l-2 1q-20 -45 -110 -245h-347zM426 1864q0 50 35 85t85 35t85 -35t35 -85t-35 -85t-85 -35t-85 35t-35 85zM619 535h285l-142 335zM622 534h285l-142 335zM625 533h285l-142 335z M628 532h285l-142 335zM874 1864q0 50 35 85t85 35t85 -35t35 -85t-35 -85t-85 -35t-85 35t-35 85z" />
<glyph unicode="&#xc5;" horiz-adv-x="1544" d="M37 4l731 1638l733 -1638h-348q-18 41 -54 122t-54 122h-549l-2 1q-20 -45 -110 -245h-347zM584 1884q0 78 55 133t133 55t133 -55t55 -133t-55 -133t-133 -55t-133 55t-55 133zM628 533h285l-142 335zM694 1883q0 -32 23 -55t55 -23t55 23t23 55t-23 55t-55 23t-55 -23 t-23 -55z" />
<glyph unicode="&#xc6;" horiz-adv-x="2097" d="M40 4l721 1608h289h174h793v-322h-644v-323h483v-322h-483v-322h644v-323h-644h-323v240l-4 8h-549l-4 -12l-105 -232h-56h-13h-210h-69zM629 533l422 6v761h-78z" />
<glyph unicode="&#xc7;" horiz-adv-x="1470" d="M40 804q0 335 239 576q239 240 575 240l-1 -4q169 0 316 -64q149 -64 261 -174l-230 -230q-146 144 -345 144q-203 0 -345 -144q-143 -145 -143 -345q0 -202 143 -345t345 -143t346 144l230 -230q-112 -110 -261 -175q-147 -64 -316 -64q-336 0 -575 239t-239 575z M513 -332q2 2 4.5 0t14.5 4.5t26 16t40 34t56 59.5t48 85t22.5 96.5t5 88t-3.5 66.5l-3 26l220 58q14 4 26.5 -69t6 -187t-42.5 -202q-22 -54 -53.5 -102.5t-60 -79.5t-54 -54t-41.5 -33l-15 -10z" />
<glyph unicode="&#xc8;" horiz-adv-x="1117" d="M81 1v1612h967v-322h-644v-323h483v-322h-483v-322h644v-323h-644h-323zM312 2069l187 148l257 -365l-116 -88z" />
<glyph unicode="&#xc9;" horiz-adv-x="1117" d="M79 1v1612h967v-322h-644v-323h483v-322h-483v-322h644v-323h-644h-323zM412 1852l257 365l187 -148l-328 -305z" />
<glyph unicode="&#xca;" horiz-adv-x="1117" d="M80 0v1612h967v-322h-644v-323h483v-322h-483v-322h644v-323h-644h-323zM304 1745l262 413l264 -413h-163l-101 157l-100 -157h-162z" />
<glyph unicode="&#xcb;" horiz-adv-x="1117" d="M80 0v1612h967v-322h-644v-323h483v-322h-483v-322h644v-323h-644h-323zM216 1894q0 50 35 85t85 35t85 -35t35 -85t-35 -85t-85 -35t-85 35t-35 85zM664 1894q0 50 35 85t85 35t85 -35t35 -85t-35 -85t-85 -35t-85 35t-35 85z" />
<glyph unicode="&#xcc;" horiz-adv-x="483" d="M-68 2069l187 148l257 -365l-116 -88zM81 1v1612h323v-1612h-323z" />
<glyph unicode="&#xcd;" horiz-adv-x="483" d="M79 1v1612h323v-1612h-323zM122 1852l257 365l187 -148l-328 -305z" />
<glyph unicode="&#xce;" horiz-adv-x="483" d="M-22 1745l262 413l264 -413h-163l-101 157l-100 -157h-162zM80 0v1612h323v-1612h-323z" />
<glyph unicode="&#xcf;" horiz-adv-x="483" d="M-94 1894q0 50 35 85t85 35t85 -35t35 -85t-35 -85t-85 -35t-85 35t-35 85zM80 0v1612h323v-1612h-323zM354 1894q0 50 35 85t85 35t85 -35t35 -85t-35 -85t-85 -35t-85 35t-35 85z" />
<glyph unicode="&#xd0;" horiz-adv-x="1421" d="M41 689v211h140v708h398q168 0 319.5 -60t268.5 -177q106 -106 161.5 -259t55.5 -309.5t-55.5 -309.5t-161.5 -258q-117 -116 -268.5 -176t-319.5 -60h-398v690h-140zM503 322h76h1q217 0 348 131t131 351q0 219 -132 351q-131 132 -350 132h-74v-387l287 -1v-211l-287 1 v-367z" />
<glyph unicode="&#xd1;" horiz-adv-x="1450" d="M81 -1v1642l967 -921v891h323v-1642l-967 922v-892h-323zM315 1910q34 37 54 54.5t53 34t68.5 14.5t89.5 -16t127 -45q107 -46 171 -50t91 13.5t76 71.5l3.5 3.5l3.5 3.5l-2 -192l1 -1q-13 -16 -25 -28.5t-27 -21t-25 -14.5t-30 -6.5t-30 -2t-36 4.5t-38 9t-46.5 14.5 t-50.5 17t-60 21.5q-42 15 -74.5 25t-61.5 14t-48 6t-40.5 -5.5t-34 -12.5t-33.5 -22.5t-33 -29t-38 -38.5z" />
<glyph unicode="&#xd2;" d="M41 805q0 335 239 576q238 240 575 240q336 0 576 -240t240 -576q0 -337 -240 -575q-241 -239 -576 -239q-336 0 -575 239t-239 575zM367 807q0 -202 143 -345t345 -143q200 0 345 143q144 142 144 345q0 201 -144 345t-345 144q-203 0 -345 -144q-143 -145 -143 -345z M522 2069l187 148l257 -365l-116 -88z" />
<glyph unicode="&#xd3;" d="M39 805q0 335 239 576q239 240 575 240t576 -240t240 -576q0 -337 -240 -575q-241 -239 -576 -239q-336 0 -575 239t-239 575zM365 807q0 -202 143 -345t345 -143q200 0 345 143q144 142 144 345q0 201 -144 345t-345 144q-203 0 -345 -144q-143 -145 -143 -345z M662 1852l257 365l187 -148l-328 -305z" />
<glyph unicode="&#xd4;" d="M40 804q0 335 239 576q239 240 575 240t576 -240t240 -576t-240 -575q-241 -239 -576 -239q-336 0 -575 239t-239 575zM366 806q0 -202 143 -345t345 -143q200 0 345 143q144 143 144 345q0 201 -144 345t-345 144q-202 0 -345 -144q-143 -145 -143 -345zM588 1745 l262 413l264 -413h-163l-101 157l-100 -157h-162z" />
<glyph unicode="&#xd5;" d="M41 803q0 335 239 576q238 240 575 240q336 0 576 -240t240 -576t-240 -575q-241 -239 -576 -239q-336 0 -575 239t-239 575zM367 805q0 -202 143 -345t345 -143q200 0 345 143q144 142 144 345q0 201 -144 345t-345 144q-203 0 -345 -144q-143 -145 -143 -345zM495 1910 q34 37 54 54.5t53 34t68.5 14.5t89.5 -16t127 -45q107 -46 171 -50t91 13.5t76 71.5l3.5 3.5l3.5 3.5l-2 -192l1 -1q-13 -16 -25 -28.5t-27 -21t-25 -14.5t-30 -6.5t-30 -2t-36 4.5t-38 9t-46.5 14.5t-50.5 17t-60 21.5q-42 15 -74.5 25t-61.5 14t-48 6t-40.5 -5.5 t-34 -12.5t-33.5 -22.5t-33 -29t-38 -38.5z" />
<glyph unicode="&#xd6;" d="M40 804q0 335 239 576q239 240 575 240t576 -240t240 -576t-240 -575q-241 -239 -576 -239q-336 0 -575 239t-239 575zM366 806q0 -202 143 -345t345 -143q200 0 345 143q144 143 144 345q0 201 -144 345t-345 144q-202 0 -345 -144q-143 -145 -143 -345zM508 1894 q0 50 35 85t85 35t85 -35t35 -85t-35 -85t-85 -35t-85 35t-35 85zM956 1894q0 50 35 85t85 35t85 -35t35 -85t-35 -85t-85 -35t-85 35t-35 85z" />
<glyph unicode="&#xd8;" d="M40 804q0 335 239 576q239 240 575 240t576 -240t240 -576t-240 -575q-241 -239 -576 -239q-336 0 -575 239t-239 575zM366 806q0 -202 143 -345t345 -143q200 0 345 143q144 143 144 345q0 201 -144 345t-345 144q-202 0 -345 -144q-143 -145 -143 -345zM396 -201 l690 2015h252l-690 -2015h-252z" />
<glyph unicode="&#xd9;" horiz-adv-x="1455" d="M80 641v324v648h325v-648v-290v-33q0 -133 95 -228t228 -95q131 0 228 95q96 94 96 228v33v290v648h325v-648v-324q0 -269 -190 -459t-458 -190q-269 0 -459 190t-190 459zM452 2069l187 148l257 -365l-116 -88z" />
<glyph unicode="&#xda;" horiz-adv-x="1455" d="M79 641v324v648h325v-648v-290v-33q0 -133 95 -228t228 -95q131 0 228 95q96 94 96 228v33v290v648h325v-648v-324q0 -269 -190 -459t-458 -190q-269 0 -459 190t-190 459zM552 1852l257 365l187 -148l-328 -305z" />
<glyph unicode="&#xdb;" horiz-adv-x="1455" d="M79 640v324v648h325v-648v-290v-33q0 -133 95 -228t228 -95q131 0 228 95q96 95 96 228v33v290v648h325v-648v-324q0 -269 -190 -459t-458 -190q-269 0 -459 190t-190 459zM462 1745l262 413l264 -413h-163l-101 157l-100 -157h-162z" />
<glyph unicode="&#xdc;" horiz-adv-x="1455" d="M79 640v324v648h325v-648v-290v-33q0 -133 95 -228t228 -95q131 0 228 95q96 95 96 228v33v290v648h325v-648v-324q0 -269 -190 -459t-458 -190q-269 0 -459 190t-190 459zM387 1894q0 50 35.5 85t84.5 35t84.5 -35t35.5 -85t-35.5 -85t-84.5 -35t-84.5 35t-35.5 85z M835 1894q0 50 35.5 85t84.5 35t84.5 -35t35.5 -85t-35.5 -85t-84.5 -35t-84.5 35t-35.5 85z" />
<glyph unicode="&#xdd;" horiz-adv-x="1369" d="M39 1613h366l278 -511l278 511h367l-484 -889v-723h-322v723zM552 1852l257 365l187 -148l-328 -305z" />
<glyph unicode="&#xdf;" horiz-adv-x="2237" d="M70 1133q0 201 144 345t346 144q201 0 345 -144t144 -345h-325q0 66 -48 114t-114 48q-67 0 -115 -48t-48 -114q0 -87 70 -132q69 -44 107 -55q9 -3 93 -28q76 -22 161 -74t152 -138q68 -88 68 -224q0 -202 -144 -346t-345 -144q-202 0 -346 144t-144 346h326 q0 -67 48 -115t115 -48q66 0 114 48t48 115q0 103 -82 133q-22 8 -47 17.5t-40.5 15t-24.5 8.5q-11 3 -88 30q-72 25 -156 80q-82 53 -148 144q-66 90 -66 223zM1190 1133q0 201 144 345t346 144q201 0 345 -144t144 -345h-325q0 66 -48 114t-114 48q-67 0 -115 -48 t-48 -114q0 -87 70 -132q69 -44 107 -55q9 -3 93 -28q76 -22 161 -74t152 -138q68 -88 68 -224q0 -202 -144 -346t-345 -144q-202 0 -346 144t-144 346h326q0 -67 48 -115t115 -48q66 0 114 48t48 115q0 103 -82 133q-22 8 -47 17.5t-40.5 15t-24.5 8.5q-11 3 -88 30 q-72 25 -156 80q-82 53 -148 144q-66 90 -66 223z" />
<glyph unicode="&#xe0;" horiz-adv-x="1544" d="M38 4l731 1638l733 -1638h-348q-18 41 -54 122t-54 122h-549l-2 1q-20 -45 -110 -245h-347zM422 2069l187 148l257 -365l-116 -88zM629 533h285l-142 335z" />
<glyph unicode="&#xe1;" horiz-adv-x="1544" d="M37 4l731 1638l733 -1638h-348q-18 41 -54 122t-54 122h-549l-2 1q-20 -45 -110 -245h-347zM622 1852l257 365l187 -148l-328 -305zM628 533h285l-142 335z" />
<glyph unicode="&#xe2;" horiz-adv-x="1544" d="M37 4l731 1638l733 -1638h-348q-18 41 -54 122t-54 122h-549l-2 1q-20 -45 -110 -245h-347zM504 1745l262 413l264 -413h-163l-101 157l-100 -157h-162zM628 533h285l-142 335z" />
<glyph unicode="&#xe3;" horiz-adv-x="1544" d="M38 2l731 1638l733 -1638h-348q-18 41 -54 122t-54 122h-549l-2 1q-20 -45 -110 -245h-347zM425 1860q34 37 54 54.5t53 34t68.5 14.5t89.5 -16t127 -45q107 -46 171 -50t91 13.5t76 71.5l3.5 3.5l3.5 3.5l-2 -192l1 -1q-13 -16 -25 -28.5t-27 -21t-25 -14.5t-30 -6.5 t-30 -2t-36 4.5t-38 9t-46.5 14.5t-50.5 17t-60 21.5q-42 15 -74.5 25t-61.5 14t-48 6t-40.5 -5.5t-34 -12.5t-33.5 -22.5t-33 -29t-38 -38.5zM629 531h285l-142 335z" />
<glyph unicode="&#xe4;" horiz-adv-x="1544" d="M28 6l731 1638l733 -1638h-348q-18 41 -54 122t-54 122h-549l-2 1q-20 -45 -110 -245h-347zM31 5l731 1638l733 -1638h-348q-18 40 -54 122t-54 122h-549l-2 1q-20 -45 -110 -245h-347zM34 4l731 1638l733 -1638h-348q-18 41 -54 122t-54 122h-549l-2 1 q-20 -45 -110 -245h-347zM37 3l731 1638l733 -1638h-348q-18 40 -54 122t-54 122h-549l-2 1q-20 -45 -110 -245h-347zM426 1864q0 50 35 85t85 35t85 -35t35 -85t-35 -85t-85 -35t-85 35t-35 85zM619 535h285l-142 335zM622 534h285l-142 335zM625 533h285l-142 335z M628 532h285l-142 335zM874 1864q0 50 35 85t85 35t85 -35t35 -85t-35 -85t-85 -35t-85 35t-35 85z" />
<glyph unicode="&#xe5;" horiz-adv-x="1544" d="M37 4l731 1638l733 -1638h-348q-18 41 -54 122t-54 122h-549l-2 1q-20 -45 -110 -245h-347zM584 1884q0 78 55 133t133 55t133 -55t55 -133t-55 -133t-133 -55t-133 55t-55 133zM628 533h285l-142 335zM694 1883q0 -32 23 -55t55 -23t55 23t23 55t-23 55t-55 23t-55 -23 t-23 -55z" />
<glyph unicode="&#xe6;" horiz-adv-x="2097" d="M40 4l721 1608h289h174h793v-322h-644v-323h483v-322h-483v-322h644v-323h-644h-323v240l-4 8h-549l-4 -12l-105 -232h-56h-13h-210h-69zM629 533l422 6v761h-78z" />
<glyph unicode="&#xe7;" horiz-adv-x="1470" d="M40 804q0 335 239 576q239 240 575 240l-1 -4q169 0 316 -64q149 -64 261 -174l-230 -230q-146 144 -345 144q-203 0 -345 -144q-143 -145 -143 -345q0 -202 143 -345t345 -143t346 144l230 -230q-112 -110 -261 -175q-147 -64 -316 -64q-336 0 -575 239t-239 575z M513 -332q2 2 4.5 0t14.5 4.5t26 16t40 34t56 59.5t48 85t22.5 96.5t5 88t-3.5 66.5l-3 26l220 58q14 4 26.5 -69t6 -187t-42.5 -202q-22 -54 -53.5 -102.5t-60 -79.5t-54 -54t-41.5 -33l-15 -10z" />
<glyph unicode="&#xe8;" horiz-adv-x="1117" d="M81 1v1612h967v-322h-644v-323h483v-322h-483v-322h644v-323h-644h-323zM312 2069l187 148l257 -365l-116 -88z" />
<glyph unicode="&#xe9;" horiz-adv-x="1117" d="M79 1v1612h967v-322h-644v-323h483v-322h-483v-322h644v-323h-644h-323zM412 1852l257 365l187 -148l-328 -305z" />
<glyph unicode="&#xea;" horiz-adv-x="1117" d="M80 0v1612h967v-322h-644v-323h483v-322h-483v-322h644v-323h-644h-323zM304 1745l262 413l264 -413h-163l-101 157l-100 -157h-162z" />
<glyph unicode="&#xeb;" horiz-adv-x="1117" d="M80 0v1612h967v-322h-644v-323h483v-322h-483v-322h644v-323h-644h-323zM216 1894q0 50 35 85t85 35t85 -35t35 -85t-35 -85t-85 -35t-85 35t-35 85zM664 1894q0 50 35 85t85 35t85 -35t35 -85t-35 -85t-85 -35t-85 35t-35 85z" />
<glyph unicode="&#xec;" horiz-adv-x="483" d="M-68 2069l187 148l257 -365l-116 -88zM81 1v1612h323v-1612h-323z" />
<glyph unicode="&#xed;" horiz-adv-x="483" d="M79 1v1612h323v-1612h-323zM122 1852l257 365l187 -148l-328 -305z" />
<glyph unicode="&#xee;" horiz-adv-x="483" d="M-22 1745l262 413l264 -413h-163l-101 157l-100 -157h-162zM80 0v1612h323v-1612h-323z" />
<glyph unicode="&#xef;" horiz-adv-x="483" d="M-94 1894q0 50 35 85t85 35t85 -35t35 -85t-35 -85t-85 -35t-85 35t-35 85zM80 0v1612h323v-1612h-323zM354 1894q0 50 35 85t85 35t85 -35t35 -85t-35 -85t-85 -35t-85 35t-35 85z" />
<glyph unicode="&#xf0;" horiz-adv-x="1421" d="M41 689v211h140v708h398q168 0 319.5 -60t268.5 -177q106 -106 161.5 -259t55.5 -309.5t-55.5 -309.5t-161.5 -258q-117 -116 -268.5 -176t-319.5 -60h-398v690h-140zM503 322h76h1q217 0 348 131t131 351q0 219 -132 351q-131 132 -350 132h-74v-387l287 -1v-211l-287 1 v-367z" />
<glyph unicode="&#xf1;" horiz-adv-x="1450" d="M81 -1v1642l967 -921v891h323v-1642l-967 922v-892h-323zM315 1910q34 37 54 54.5t53 34t68.5 14.5t89.5 -16t127 -45q107 -46 171 -50t91 13.5t76 71.5l3.5 3.5l3.5 3.5l-2 -192l1 -1q-13 -16 -25 -28.5t-27 -21t-25 -14.5t-30 -6.5t-30 -2t-36 4.5t-38 9t-46.5 14.5 t-50.5 17t-60 21.5q-42 15 -74.5 25t-61.5 14t-48 6t-40.5 -5.5t-34 -12.5t-33.5 -22.5t-33 -29t-38 -38.5z" />
<glyph unicode="&#xf2;" d="M41 805q0 335 239 576q238 240 575 240q336 0 576 -240t240 -576q0 -337 -240 -575q-241 -239 -576 -239q-336 0 -575 239t-239 575zM367 807q0 -202 143 -345t345 -143q200 0 345 143q144 142 144 345q0 201 -144 345t-345 144q-203 0 -345 -144q-143 -145 -143 -345z M522 2069l187 148l257 -365l-116 -88z" />
<glyph unicode="&#xf3;" d="M39 805q0 335 239 576q239 240 575 240t576 -240t240 -576q0 -337 -240 -575q-241 -239 -576 -239q-336 0 -575 239t-239 575zM365 807q0 -202 143 -345t345 -143q200 0 345 143q144 142 144 345q0 201 -144 345t-345 144q-203 0 -345 -144q-143 -145 -143 -345z M662 1852l257 365l187 -148l-328 -305z" />
<glyph unicode="&#xf4;" d="M40 804q0 335 239 576q239 240 575 240t576 -240t240 -576t-240 -575q-241 -239 -576 -239q-336 0 -575 239t-239 575zM366 806q0 -202 143 -345t345 -143q200 0 345 143q144 143 144 345q0 201 -144 345t-345 144q-202 0 -345 -144q-143 -145 -143 -345zM588 1745 l262 413l264 -413h-163l-101 157l-100 -157h-162z" />
<glyph unicode="&#xf5;" d="M41 803q0 335 239 576q238 240 575 240q336 0 576 -240t240 -576t-240 -575q-241 -239 -576 -239q-336 0 -575 239t-239 575zM367 805q0 -202 143 -345t345 -143q200 0 345 143q144 142 144 345q0 201 -144 345t-345 144q-203 0 -345 -144q-143 -145 -143 -345zM495 1910 q34 37 54 54.5t53 34t68.5 14.5t89.5 -16t127 -45q107 -46 171 -50t91 13.5t76 71.5l3.5 3.5l3.5 3.5l-2 -192l1 -1q-13 -16 -25 -28.5t-27 -21t-25 -14.5t-30 -6.5t-30 -2t-36 4.5t-38 9t-46.5 14.5t-50.5 17t-60 21.5q-42 15 -74.5 25t-61.5 14t-48 6t-40.5 -5.5 t-34 -12.5t-33.5 -22.5t-33 -29t-38 -38.5z" />
<glyph unicode="&#xf6;" d="M40 804q0 335 239 576q239 240 575 240t576 -240t240 -576t-240 -575q-241 -239 -576 -239q-336 0 -575 239t-239 575zM366 806q0 -202 143 -345t345 -143q200 0 345 143q144 143 144 345q0 201 -144 345t-345 144q-202 0 -345 -144q-143 -145 -143 -345zM508 1894 q0 50 35 85t85 35t85 -35t35 -85t-35 -85t-85 -35t-85 35t-35 85zM956 1894q0 50 35 85t85 35t85 -35t35 -85t-35 -85t-85 -35t-85 35t-35 85z" />
<glyph unicode="&#xf8;" d="M40 804q0 335 239 576q239 240 575 240t576 -240t240 -576t-240 -575q-241 -239 -576 -239q-336 0 -575 239t-239 575zM366 806q0 -202 143 -345t345 -143q200 0 345 143q144 143 144 345q0 201 -144 345t-345 144q-202 0 -345 -144q-143 -145 -143 -345zM396 -201 l690 2015h252l-690 -2015h-252z" />
<glyph unicode="&#xf9;" horiz-adv-x="1455" d="M80 641v324v648h325v-648v-290v-33q0 -133 95 -228t228 -95q131 0 228 95q96 94 96 228v33v290v648h325v-648v-324q0 -269 -190 -459t-458 -190q-269 0 -459 190t-190 459zM452 2069l187 148l257 -365l-116 -88z" />
<glyph unicode="&#xfa;" horiz-adv-x="1455" d="M79 641v324v648h325v-648v-290v-33q0 -133 95 -228t228 -95q131 0 228 95q96 94 96 228v33v290v648h325v-648v-324q0 -269 -190 -459t-458 -190q-269 0 -459 190t-190 459zM552 1852l257 365l187 -148l-328 -305z" />
<glyph unicode="&#xfb;" horiz-adv-x="1455" d="M79 640v324v648h325v-648v-290v-33q0 -133 95 -228t228 -95q131 0 228 95q96 95 96 228v33v290v648h325v-648v-324q0 -269 -190 -459t-458 -190q-269 0 -459 190t-190 459zM462 1745l262 413l264 -413h-163l-101 157l-100 -157h-162z" />
<glyph unicode="&#xfc;" horiz-adv-x="1455" d="M79 640v324v648h325v-648v-290v-33q0 -133 95 -228t228 -95q131 0 228 95q96 95 96 228v33v290v648h325v-648v-324q0 -269 -190 -459t-458 -190q-269 0 -459 190t-190 459zM387 1894q0 50 35.5 85t84.5 35t84.5 -35t35.5 -85t-35.5 -85t-84.5 -35t-84.5 35t-35.5 85z M835 1894q0 50 35.5 85t84.5 35t84.5 -35t35.5 -85t-35.5 -85t-84.5 -35t-84.5 35t-35.5 85z" />
<glyph unicode="&#xfd;" horiz-adv-x="1369" d="M39 1613h366l278 -511l278 511h367l-484 -889v-723h-322v723zM552 1852l257 365l187 -148l-328 -305z" />
<glyph unicode="&#x152;" horiz-adv-x="2379" d="M40 805q0 335 239 576q239 240 575 240q270 0 478 -156v145l967 -1v-322h-644v-323h483v-322h-483v-322h644v-323h-644h-323v149q-209 -155 -478 -155q-336 0 -575 239t-239 575zM366 805q0 -202 143 -345t345 -143q200 0 345 143q105 103 133 238v212q-29 136 -133 240 q-144 144 -345 144q-202 0 -345 -144q-143 -145 -143 -345z" />
<glyph unicode="&#x153;" horiz-adv-x="2379" d="M40 805q0 335 239 576q239 240 575 240q270 0 478 -156v145l967 -1v-322h-644v-323h483v-322h-483v-322h644v-323h-644h-323v149q-209 -155 -478 -155q-336 0 -575 239t-239 575zM366 805q0 -202 143 -345t345 -143q200 0 345 143q105 103 133 238v212q-29 136 -133 240 q-144 144 -345 144q-202 0 -345 -144q-143 -145 -143 -345z" />
<glyph unicode="&#x2000;" horiz-adv-x="1108" />
<glyph unicode="&#x2001;" horiz-adv-x="2217" />
<glyph unicode="&#x2002;" horiz-adv-x="1108" />
<glyph unicode="&#x2003;" horiz-adv-x="2217" />
<glyph unicode="&#x2004;" horiz-adv-x="739" />
<glyph unicode="&#x2005;" horiz-adv-x="554" />
<glyph unicode="&#x2006;" horiz-adv-x="369" />
<glyph unicode="&#x2007;" horiz-adv-x="369" />
<glyph unicode="&#x2008;" horiz-adv-x="277" />
<glyph unicode="&#x2009;" horiz-adv-x="443" />
<glyph unicode="&#x200a;" horiz-adv-x="123" />
<glyph unicode="&#x2010;" horiz-adv-x="886" d="M50 484v282h786v-282h-786z" />
<glyph unicode="&#x2011;" horiz-adv-x="886" d="M50 484v282h786v-282h-786z" />
<glyph unicode="&#x2012;" horiz-adv-x="886" d="M50 484v282h786v-282h-786z" />
<glyph unicode="&#x2013;" horiz-adv-x="1124" d="M50 484v282h1024v-282h-1024z" />
<glyph unicode="&#x2014;" horiz-adv-x="2148" d="M50 484v282h2048v-282h-2048z" />
<glyph unicode="&#x2018;" horiz-adv-x="467" d="M0 1612h323l-41 -523h-242z" />
<glyph unicode="&#x2019;" horiz-adv-x="467" d="M0 1612h323l-41 -523h-242z" />
<glyph unicode="&#x201c;" horiz-adv-x="796" d="M0 1058v322l98 232h141l-50 -232h93v-322h-282zM363 1058v322l98 232h140l-49 -232h93v-322h-282z" />
<glyph unicode="&#x201d;" horiz-adv-x="796" d="M0 1290v322h282v-322l-98 -232h-141l50 232h-93zM363 1290v322h282v-322l-98 -232h-141l50 232h-93z" />
<glyph unicode="&#x201e;" horiz-adv-x="796" d="M0 1058v322l98 232h141l-50 -232h93v-322h-282zM363 1058v322l98 232h140l-49 -232h93v-322h-282z" />
<glyph unicode="&#x202f;" horiz-adv-x="443" />
<glyph unicode="&#x205f;" horiz-adv-x="554" />
<glyph unicode="&#x20ac;" horiz-adv-x="1590" d="M40 600v161h1180v-161h-1180zM40 860v161h1180v-161h-1180zM140 804q0 335 239 576q239 240 575 240l-1 -4q169 0 316 -64q149 -64 261 -174l-230 -230q-146 144 -345 144q-203 0 -345 -144q-143 -145 -143 -345q0 -202 143 -345t345 -143t346 144l230 -230 q-112 -110 -261 -175q-147 -64 -316 -64q-336 0 -575 239t-239 575z" />
<glyph unicode="&#x25fc;" horiz-adv-x="1610" d="M0 0v1610h1610v-1610h-1610z" />
</font>
</defs>
</svg>
